<svg xmlns="http://www.w3.org/2000/svg" width="2.742" height="31.291" viewBox="0 0 2.742 31.291">
  <g id="Group_9438" data-name="Group 9438" transform="translate(-253 -249)">
    <path id="Rectangle_5082" data-name="Rectangle 5082" d="M0,0H7.769A2.742,2.742,0,0,1,10.51,2.742v0a0,0,0,0,1,0,0H0a0,0,0,0,1,0,0V0A0,0,0,0,1,0,0Z" transform="translate(255.742 269.78) rotate(90)" fill="#527c02"/>
    <rect id="Rectangle_5083" data-name="Rectangle 5083" width="10.44" height="2.742" transform="translate(255.742 259.44) rotate(90)" fill="#3d95c8"/>
    <path id="Rectangle_5084" data-name="Rectangle 5084" d="M2.742,0h7.7a0,0,0,0,1,0,0V2.742a0,0,0,0,1,0,0H0a0,0,0,0,1,0,0v0A2.742,2.742,0,0,1,2.742,0Z" transform="translate(255.742 249) rotate(90)" fill="#f77800"/>
  </g>
</svg>
