<svg xmlns="http://www.w3.org/2000/svg" width="35.366" height="35.037" viewBox="0 0 35.366 35.037">
  <g id="Group_9375" data-name="Group 9375" transform="translate(-265.72 -19.963)">
    <g id="Union_66" data-name="Union 66" transform="translate(265.72 28.566)" fill="#3d95c8">
      <path d="M 14.94077396392822 17.09251976013184 L 5.661809921264648 17.09251976013184 L 0.6311290264129639 8.796664237976074 L 5.661821365356445 0.4999998807907104 L 14.94076156616211 0.4999998807907104 L 19.92112159729004 8.796664237976074 L 14.94077396392822 17.09251976013184 Z" stroke="none"/>
      <path d="M 14.65776634216309 16.59251976013184 L 19.33794403076172 8.796664237976074 L 14.65772724151611 0.9999998807907104 L 5.943386554718018 0.9999998807907104 L 1.215878129005432 8.796649932861328 L 5.943362712860107 16.59251976013184 L 14.65776634216309 16.59251976013184 M 15.22378635406494 17.59251976013184 L 5.380266666412354 17.59251976013184 L 0.09292664378881454 8.873419761657715 L -3.352661224198528e-06 8.873419761657715 L 0.0462566465139389 8.796259880065918 L -3.352661224198528e-06 8.719929695129395 L 0.09292664378881454 8.719929695129395 L 5.380266666412354 -1.199340857738207e-07 L 15.22378635406494 -1.199340857738207e-07 L 20.45822715759277 8.719929695129395 L 20.550537109375 8.719929695129395 L 20.50427627563477 8.796259880065918 L 20.550537109375 8.873419761657715 L 20.45822715759277 8.873419761657715 L 15.22378635406494 17.59251976013184 Z" stroke="none" fill="#fff"/>
    </g>
    <g id="Union_69" data-name="Union 69" transform="translate(280.535 19.963)" fill="#527c02">
      <path d="M 14.94077396392822 17.09251976013184 L 5.661809921264648 17.09251976013184 L 0.6311290264129639 8.796664237976074 L 5.661821365356445 0.4999998807907104 L 14.94076156616211 0.4999998807907104 L 19.92112159729004 8.796664237976074 L 14.94077396392822 17.09251976013184 Z" stroke="none"/>
      <path d="M 14.65776634216309 16.59251976013184 L 19.33794403076172 8.796664237976074 L 14.65772724151611 0.9999998807907104 L 5.943386554718018 0.9999998807907104 L 1.215878129005432 8.796649932861328 L 5.943362712860107 16.59251976013184 L 14.65776634216309 16.59251976013184 M 15.22378635406494 17.59251976013184 L 5.380266666412354 17.59251976013184 L 0.09292664378881454 8.873419761657715 L -3.352661224198528e-06 8.873419761657715 L 0.0462566465139389 8.796259880065918 L -3.352661224198528e-06 8.719929695129395 L 0.09292664378881454 8.719929695129395 L 5.380266666412354 -1.199340857738207e-07 L 15.22378635406494 -1.199340857738207e-07 L 20.45822715759277 8.719929695129395 L 20.550537109375 8.719929695129395 L 20.50427627563477 8.796259880065918 L 20.550537109375 8.873419761657715 L 20.45822715759277 8.873419761657715 L 15.22378635406494 17.59251976013184 Z" stroke="none" fill="#fff"/>
    </g>
    <g id="Union_72" data-name="Union 72" transform="translate(280.535 37.407)" fill="#f77800">
      <path d="M 14.94077396392822 17.09251976013184 L 5.661809921264648 17.09251976013184 L 0.6311290264129639 8.796664237976074 L 5.661821365356445 0.4999998807907104 L 14.94076156616211 0.4999998807907104 L 19.92112159729004 8.796664237976074 L 14.94077396392822 17.09251976013184 Z" stroke="none"/>
      <path d="M 14.65776634216309 16.59251976013184 L 19.33794403076172 8.796664237976074 L 14.65772724151611 0.9999998807907104 L 5.943386554718018 0.9999998807907104 L 1.215878129005432 8.796649932861328 L 5.943362712860107 16.59251976013184 L 14.65776634216309 16.59251976013184 M 15.22378635406494 17.59251976013184 L 5.380266666412354 17.59251976013184 L 0.09292664378881454 8.873419761657715 L -3.352661224198528e-06 8.873419761657715 L 0.0462566465139389 8.796259880065918 L -3.352661224198528e-06 8.719929695129395 L 0.09292664378881454 8.719929695129395 L 5.380266666412354 -1.199340857738207e-07 L 15.22378635406494 -1.199340857738207e-07 L 20.45822715759277 8.719929695129395 L 20.550537109375 8.719929695129395 L 20.50427627563477 8.796259880065918 L 20.550537109375 8.873419761657715 L 20.45822715759277 8.873419761657715 L 15.22378635406494 17.59251976013184 Z" stroke="none" fill="#fff"/>
    </g>
  </g>
</svg>
