<svg xmlns="http://www.w3.org/2000/svg" width="21.316" height="21.316" viewBox="0 0 21.316 21.316">
  <path id="Search_Icon" data-name="Search Icon" d="M4.19,14.259a8.6,8.6,0,0,1-1.778-5.3A8.913,8.913,0,0,1,11.3,0a9.022,9.022,0,0,1,9.015,8.959A9.022,9.022,0,0,1,11.3,17.918a8.465,8.465,0,0,1-5.333-1.767L2.159,19.937a1.376,1.376,0,0,1-.889.379,1.376,1.376,0,0,1-.889-.379,1.215,1.215,0,0,1,0-1.767ZM11.3,15.268a6.376,6.376,0,0,0,6.476-6.309,6.476,6.476,0,0,0-12.951,0A6.376,6.376,0,0,0,11.3,15.268Z" transform="translate(0.5 0.5)" fill="#3d95c8" stroke="#fff" stroke-width="1"/>
</svg>
